<svg>
    <defs>
        <symbol id="music-node" xmlns="http://www.w3.org/2000/svg" viewBox="0 0 512 512">
            <path fill="currentColor" d="M481.44 0a29.38 29.38 0 0 0-9.25 1.5l-290.78 96C168.72 101.72 160 114 160 128v244.75C143 360 120.69 352 96 352c-53 0-96 35.81-96 80s43 80 96 80 96-35.81 96-80V256l288-96v148.75C463 296 440.69 288 416 288c-53 0-96 35.81-96 80s43 80 96 80 96-35.81 96-80V32c0-18.25-14.31-32-30.56-32zM96 480c-34.69 0-64-22-64-48s29.31-48 64-48 64 22 64 48-29.31 48-64 48zm320-64c-34.69 0-64-22-64-48s29.31-48 64-48 64 22 64 48-29.31 48-64 48zm64-289.72l-288 96V128h-.56v-.12L480 32.62z" class=""></path>
        </symbol>
        <symbol id="search-node" xmlns="http://www.w3.org/2000/svg" viewBox="0 0 512 512">
                  <path fill="currentColor" d="M508.5 481.6l-129-129c-2.3-2.3-5.3-3.5-8.5-3.5h-10.3C395 312 416 262.5 416 208 416 93.1 322.9 0 208 0S0 93.1 0 208s93.1 208 208 208c54.5 0 104-21 141.1-55.2V371c0 3.2 1.3 6.2 3.5 8.5l129 129c4.7 4.7 12.3 4.7 17 0l9.9-9.9c4.7-4.7 4.7-12.3 0-17zM208 384c-97.3 0-176-78.7-176-176S110.7 32 208 32s176 78.7 176 176-78.7 176-176 176z" class=""></path>
        </symbol>
        <symbol id="sun-node" xmlns="http://www.w3.org/2000/svg" viewBox="0 0 512 512">
                <path fill="currentColor" d="M502.42 240.5l-94.7-47.3 33.5-100.4c4.5-13.6-8.4-26.5-21.9-21.9l-100.4 33.5-47.41-94.8a17.31 17.31 0 0 0-31 0l-47.3 94.7L92.7 70.8c-13.6-4.5-26.5 8.4-21.9 21.9l33.5 100.4-94.7 47.4a17.31 17.31 0 0 0 0 31l94.7 47.3-33.5 100.5c-4.5 13.6 8.4 26.5 21.9 21.9l100.41-33.5 47.3 94.7a17.31 17.31 0 0 0 31 0l47.31-94.7 100.4 33.5c13.6 4.5 26.5-8.4 21.9-21.9l-33.5-100.4 94.7-47.3a17.33 17.33 0 0 0 .2-31.1zm-155.9 106c-49.91 49.9-131.11 49.9-181 0a128.13 128.13 0 0 1 0-181c49.9-49.9 131.1-49.9 181 0a128.13 128.13 0 0 1 0 181z"></path>
                <path fill="currentColor" d="M352 256a96 96 0 1 1-96-96 96.15 96.15 0 0 1 96 96z"></path>
        </symbol>
        <!-- </symbol id="night-node" xmlns="http://www.w3.org/2000/svg" viewBox="0 0 512 512">                  
            <path fill="currentColor" d="" class="fa-secondary"></path><path fill="currentColor" d="M32,256C32,114.51,144.29,0,282.64,0a246.91,246.91,0,0,1,45.8,4.28c10.77,2,13.16,16.72,3.67,22.23-61.52,35.76-99.37,102.17-99.37,174.39,0,125.38,111.67,220.61,233.28,197,10.69-2.08,18.24,10.64,11.32,19.35C430.56,476.08,360,512,282.64,512,144.11,512,32,397.31,32,256Z" class="fa-primary"></path>
        </symbol> -->
        <symbol id="night-node" xmlns="http://www.w3.org/2000/svg" viewBox="0 0 512 512">
            <path fill="currentColor" d="M448.964 365.617C348.188 384.809 255.14 307.765 255.14 205.419c0-58.893 31.561-112.832 82.574-141.862 25.83-14.7 19.333-53.859-10.015-59.28A258.114 258.114 0 0 0 280.947 0c-141.334 0-256 114.546-256 256 0 141.334 114.547 256 256 256 78.931 0 151.079-35.924 198.85-94.783 18.846-23.22-1.706-57.149-30.833-51.6zM280.947 480c-123.712 0-224-100.288-224-224s100.288-224 224-224c13.984 0 27.665 1.294 40.94 3.745-58.972 33.56-98.747 96.969-98.747 169.674 0 122.606 111.613 214.523 231.81 191.632C413.881 447.653 351.196 480 280.947 480z" class=""></path>
        </symbol>
        <symbol id="facebook-node" xmlns="http://www.w3.org/2000/svg" viewBox="0 0 320 512" >
            <path fill="currentColor" d="M279.14 288l14.22-92.66h-88.91v-60.13c0-25.35 12.42-50.06 52.24-50.06h40.42V6.26S260.43 0 225.36 0c-73.22 0-121.08 44.38-121.08 124.72v70.62H22.89V288h81.39v224h100.17V288z" class=""></path>
        </symbol>
        <symbol id="twitter-node" xmlns="http://www.w3.org/2000/svg" viewBox="0 0 512 512" >
            <path fill="currentColor" d="M459.37 151.716c.325 4.548.325 9.097.325 13.645 0 138.72-105.583 298.558-298.558 298.558-59.452 0-114.68-17.219-161.137-47.106 8.447.974 16.568 1.299 25.34 1.299 49.055 0 94.213-16.568 130.274-44.832-46.132-.975-84.792-31.188-98.112-72.772 6.498.974 12.995 1.624 19.818 1.624 9.421 0 18.843-1.3 27.614-3.573-48.081-9.747-84.143-51.98-84.143-102.985v-1.299c13.969 7.797 30.214 12.67 47.431 13.319-28.264-18.843-46.781-51.005-46.781-87.391 0-19.492 5.197-37.36 14.294-52.954 51.655 63.675 129.3 105.258 216.365 109.807-1.624-7.797-2.599-15.918-2.599-24.04 0-57.828 46.782-104.934 104.934-104.934 30.213 0 57.502 12.67 76.67 33.137 23.715-4.548 46.456-13.32 66.599-25.34-7.798 24.366-24.366 44.833-46.132 57.827 21.117-2.273 41.584-8.122 60.426-16.243-14.292 20.791-32.161 39.308-52.628 54.253z" class=""></path>
        </symbol>
        <symbol id="instagram-node" xmlns="http://www.w3.org/2000/svg" viewBox="0 0 448 512">
            <path fill="currentColor" d="M224,202.66A53.34,53.34,0,1,0,277.36,256,53.38,53.38,0,0,0,224,202.66Zm124.71-41a54,54,0,0,0-30.41-30.41c-21-8.29-71-6.43-94.3-6.43s-73.25-1.93-94.31,6.43a54,54,0,0,0-30.41,30.41c-8.28,21-6.43,71.05-6.43,94.33S91,329.26,99.32,350.33a54,54,0,0,0,30.41,30.41c21,8.29,71,6.43,94.31,6.43s73.24,1.93,94.3-6.43a54,54,0,0,0,30.41-30.41c8.35-21,6.43-71.05,6.43-94.33S357.1,182.74,348.75,161.67ZM224,338a82,82,0,1,1,82-82A81.9,81.9,0,0,1,224,338Zm85.38-148.3a19.14,19.14,0,1,1,19.13-19.14A19.1,19.1,0,0,1,309.42,189.74ZM400,32H48A48,48,0,0,0,0,80V432a48,48,0,0,0,48,48H400a48,48,0,0,0,48-48V80A48,48,0,0,0,400,32ZM382.88,322c-1.29,25.63-7.14,48.34-25.85,67s-41.4,24.63-67,25.85c-26.41,1.49-105.59,1.49-132,0-25.63-1.29-48.26-7.15-67-25.85s-24.63-41.42-25.85-67c-1.49-26.42-1.49-105.61,0-132,1.29-25.63,7.07-48.34,25.85-67s41.47-24.56,67-25.78c26.41-1.49,105.59-1.49,132,0,25.63,1.29,48.33,7.15,67,25.85s24.63,41.42,25.85,67.05C384.37,216.44,384.37,295.56,382.88,322Z" class=""></path>
        </symbol>
        <symbol id="menuBar-node" xmlns="http://www.w3.org/2000/svg" viewBox="0 0 448 512">
            <path fill="currentColor" d="M442 114H6a6 6 0 0 1-6-6V84a6 6 0 0 1 6-6h436a6 6 0 0 1 6 6v24a6 6 0 0 1-6 6zm0 160H6a6 6 0 0 1-6-6v-24a6 6 0 0 1 6-6h436a6 6 0 0 1 6 6v24a6 6 0 0 1-6 6zm0 160H6a6 6 0 0 1-6-6v-24a6 6 0 0 1 6-6h436a6 6 0 0 1 6 6v24a6 6 0 0 1-6 6z" class=""></path>
        </symbol>
        <symbol id="cross-node" xmlns="http://www.w3.org/2000/svg" viewBox="0 0 320 512">
            <path fill="currentColor" d="M193.94 256L296.5 153.44l21.15-21.15c3.12-3.12 3.12-8.19 0-11.31l-22.63-22.63c-3.12-3.12-8.19-3.12-11.31 0L160 222.06 36.29 98.34c-3.12-3.12-8.19-3.12-11.31 0L2.34 120.97c-3.12 3.12-3.12 8.19 0 11.31L126.06 256 2.34 379.71c-3.12 3.12-3.12 8.19 0 11.31l22.63 22.63c3.12 3.12 8.19 3.12 11.31 0L160 289.94 262.56 392.5l21.15 21.15c3.12 3.12 8.19 3.12 11.31 0l22.63-22.63c3.12-3.12 3.12-8.19 0-11.31L193.94 256z" class=""></path>
        </symbol>
        <symbol id="user-node" xmlns="http://www.w3.org/2000/svg" viewBox="0 0 448 512">
           <path fill="currentColor" d="M313.6 288c-28.7 0-42.5 16-89.6 16-47.1 0-60.8-16-89.6-16C60.2 288 0 348.2 0 422.4V464c0 26.5 21.5 48 48 48h352c26.5 0 48-21.5 48-48v-41.6c0-74.2-60.2-134.4-134.4-134.4zM416 464c0 8.8-7.2 16-16 16H48c-8.8 0-16-7.2-16-16v-41.6C32 365.9 77.9 320 134.4 320c19.6 0 39.1 16 89.6 16 50.4 0 70-16 89.6-16 56.5 0 102.4 45.9 102.4 102.4V464zM224 256c70.7 0 128-57.3 128-128S294.7 0 224 0 96 57.3 96 128s57.3 128 128 128zm0-224c52.9 0 96 43.1 96 96s-43.1 96-96 96-96-43.1-96-96 43.1-96 96-96z" class=""></path>
        </symbol>

        <symbol id="angleRight-node" xmlns="http://www.w3.org/2000/svg" viewBox="0 0 192 512">
            <path fill="currentColor" d="M166.9 264.5l-117.8 116c-4.7 4.7-12.3 4.7-17 0l-7.1-7.1c-4.7-4.7-4.7-12.3 0-17L127.3 256 25.1 155.6c-4.7-4.7-4.7-12.3 0-17l7.1-7.1c4.7-4.7 12.3-4.7 17 0l117.8 116c4.6 4.7 4.6 12.3-.1 17z" class=""></path>
        </symbol>
        <symbol id="angleLeft-node" xmlns="http://www.w3.org/2000/svg" viewBox="0 0 192 512" >
           <path fill="currentColor" d="M25.1 247.5l117.8-116c4.7-4.7 12.3-4.7 17 0l7.1 7.1c4.7 4.7 4.7 12.3 0 17L64.7 256l102.2 100.4c4.7 4.7 4.7 12.3 0 17l-7.1 7.1c-4.7 4.7-12.3 4.7-17 0L25 264.5c-4.6-4.7-4.6-12.3.1-17z" class=""></path>
        </symbol>
        <symbol id="playButton-node" xmlns="http://www.w3.org/2000/svg" viewBox="0 0 448 512" >
            <path fill="currentColor" d="M424.4 214.7L72.4 6.6C43.8-10.3 0 6.1 0 47.9V464c0 37.5 40.7 60.1 72.4 41.3l352-208c31.4-18.5 31.5-64.1 0-82.6z" class=""></path>
        </symbol>
        <symbol id="share-node" xmlns="http://www.w3.org/2000/svg" viewBox="0 0 576 512">
            <path fill="currentColor" d="M564.907 196.35L388.91 12.366C364.216-13.45 320 3.746 320 40.016v88.154C154.548 130.155 0 160.103 0 331.19c0 94.98 55.84 150.231 89.13 174.571 24.233 17.722 58.021-4.992 49.68-34.51C100.937 336.887 165.575 321.972 320 320.16V408c0 36.239 44.19 53.494 68.91 27.65l175.998-184c14.79-15.47 14.79-39.83-.001-55.3zm-23.127 33.18l-176 184c-4.933 5.16-13.78 1.73-13.78-5.53V288c-171.396 0-295.313 9.707-243.98 191.7C72 453.36 32 405.59 32 331.19 32 171.18 194.886 160 352 160V40c0-7.262 8.851-10.69 13.78-5.53l176 184a7.978 7.978 0 0 1 0 11.06z" class=""></path>
        </symbol>
        <symbol id="dottedMenu-node" xmlns="http://www.w3.org/2000/svg" viewBox="0 0 128 512">
             <path fill="currentColor" d="M64 208c26.5 0 48 21.5 48 48s-21.5 48-48 48-48-21.5-48-48 21.5-48 48-48zM16 104c0 26.5 21.5 48 48 48s48-21.5 48-48-21.5-48-48-48-48 21.5-48 48zm0 304c0 26.5 21.5 48 48 48s48-21.5 48-48-21.5-48-48-48-48 21.5-48 48z" class=""></path>
        </symbol>
        <symbol id="heart-node" xmlns="http://www.w3.org/2000/svg" viewBox="0 0 512 512">
            <path fill="currentColor" d="M462.3 62.6C407.5 15.9 326 24.3 275.7 76.2L256 96.5l-19.7-20.3C186.1 24.3 104.5 15.9 49.7 62.6c-62.8 53.6-66.1 149.8-9.9 207.9l193.5 199.8c12.5 12.9 32.8 12.9 45.3 0l193.5-199.8c56.3-58.1 53-154.3-9.8-207.9z" class=""></path>
        </symbol>
        <symbol id="download-node" xmlns="http://www.w3.org/2000/svg" viewBox="0 0 384 512">
            <path fill="currentColor" d="M348.5 264l-148 148.5c-4.7 4.7-12.3 4.7-17 0L35.5 264c-4.7-4.7-4.7-12.3 0-17l7.1-7.1c4.7-4.7 12.3-4.7 17 0l115.4 116V44c0-6.6 5.4-12 12-12h10c6.6 0 12 5.4 12 12v311.9L324.4 240c4.7-4.7 12.3-4.7 17 0l7.1 7.1c4.7 4.6 4.7 12.2 0 16.9zM384 468v-8c0-6.6-5.4-12-12-12H12c-6.6 0-12 5.4-12 12v8c0 6.6 5.4 12 12 12h360c6.6 0 12-5.4 12-12z" class=""></path>
        </symbol>
    </defs>
</svg>